<svg width="37" height="31" viewBox="0 0 37 31" fill="none" xmlns="http://www.w3.org/2000/svg">
<rect width="37" height="31" rx="5" fill="white"/>
<path d="M12.8 10.44H10.94C10.7267 10.44 10.62 10.4933 10.62 10.6V23H8.52C8.06667 23 7.76667 22.9267 7.62 22.78C7.48667 22.6333 7.42 22.3267 7.42 21.86V9.68C7.42 9.21333 7.48667 8.90667 7.62 8.76C7.76667 8.61333 8.06667 8.54 8.52 8.54H12.8V10.44ZM13.6 8.54H15.7C16.1533 8.54 16.4467 8.61333 16.58 8.76C16.7267 8.90667 16.8 9.21333 16.8 9.68V21.84C16.8 22.3067 16.7267 22.62 16.58 22.78C16.4333 22.9267 16.14 23 15.7 23H13.6V16.3H11.42V14.4H13.6V8.54ZM23.0866 23H22.8466C22.3132 23 21.8666 22.96 21.5066 22.88C21.1599 22.8 20.8532 22.64 20.5866 22.4C20.3332 22.1467 20.1332 21.8667 19.9866 21.56C19.8532 21.2533 19.7466 20.7933 19.6666 20.18C19.5466 19.26 19.4866 18.0267 19.4866 16.48C19.4866 14.92 19.4932 13.82 19.5066 13.18C19.5332 12.54 19.5866 11.92 19.6666 11.32C19.7466 10.7067 19.8532 10.2533 19.9866 9.96C20.1332 9.65333 20.3332 9.38 20.5866 9.14C20.8532 8.88667 21.1599 8.72667 21.5066 8.66C21.8666 8.58 22.3132 8.54 22.8466 8.54H23.0866V23ZM23.8866 8.54H26.4266C27.3999 8.54 28.1332 8.70667 28.6266 9.04C29.1332 9.37333 29.3866 9.95333 29.3866 10.78V12.58C29.3866 12.86 29.2932 13 29.1066 13H26.5866C26.3999 13 26.2866 12.9733 26.2466 12.92C26.2066 12.8667 26.1866 12.7533 26.1866 12.58V11.02C26.1866 10.8067 26.1532 10.66 26.0866 10.58C26.0332 10.4867 25.8866 10.44 25.6466 10.44H23.8866V8.54ZM26.5866 18.54H29.1066C29.2932 18.54 29.3866 18.68 29.3866 18.96V20.76C29.3866 21.5867 29.1332 22.1667 28.6266 22.5C28.1332 22.8333 27.3999 23 26.4266 23H23.8866V21.1H25.6466C25.8866 21.1 26.0332 21.06 26.0866 20.98C26.1532 20.8867 26.1866 20.7333 26.1866 20.52V18.96C26.1866 18.7867 26.2066 18.6733 26.2466 18.62C26.2866 18.5667 26.3999 18.54 26.5866 18.54Z" fill="#0064FF"/>
</svg>
